<?xml version="1.0" encoding="UTF-8"?>
<svg xmlns="http://www.w3.org/2000/svg" xmlns:xlink="http://www.w3.org/1999/xlink" width="256pt" height="256pt" viewBox="0 0 256 256" version="1.1">
<g id="surface3269657">
<path style=" stroke:none;fill-rule:nonzero;fill:rgb(0.392157%,42.745098%,61.176471%);fill-opacity:1;" d="M 128 28 C 72.773438 28 28 72.773438 28 128 C 28 183.226562 72.773438 228 128 228 C 183.226562 228 228 183.226562 228 128 C 228 72.773438 183.226562 28 128 28 Z M 128 28 "/>
<path style=" stroke:none;fill-rule:nonzero;fill:rgb(100%,100%,100%);fill-opacity:1;" d="M 128 234 C 69.601562 234 22 186.398438 22 128 C 22 69.601562 69.601562 22 128 22 C 186.398438 22 234 69.601562 234 128 C 234 186.398438 186.398438 234 128 234 Z M 128 34 C 76.199219 34 34 76.199219 34 128 C 34 179.800781 76.199219 222 128 222 C 179.800781 222 222 179.800781 222 128 C 222 76.199219 179.800781 34 128 34 Z M 128 34 "/>
<path style=" stroke:none;fill-rule:nonzero;fill:rgb(100%,100%,100%);fill-opacity:1;" d="M 173 104 L 83 104 C 79.601562 104 77 101.398438 77 98 C 77 94.601562 79.601562 92 83 92 L 173 92 C 176.398438 92 179 94.601562 179 98 C 179 101.398438 176.398438 104 173 104 Z M 173 134 L 83 134 C 79.601562 134 77 131.398438 77 128 C 77 124.601562 79.601562 122 83 122 L 173 122 C 176.398438 122 179 124.601562 179 128 C 179 131.398438 176.398438 134 173 134 Z M 173 134 "/>
<path style=" stroke:none;fill-rule:nonzero;fill:rgb(100%,100%,100%);fill-opacity:1;" d="M 173 164 L 83 164 C 79.601562 164 77 161.398438 77 158 C 77 154.601562 79.601562 152 83 152 L 173 152 C 176.398438 152 179 154.601562 179 158 C 179 161.398438 176.398438 164 173 164 Z M 173 164 "/>
</g>
</svg>
